<svg width="48" height="48" viewBox="0 0 48 48" fill="none" xmlns="http://www.w3.org/2000/svg">
<path d="M44.444 0.00357915H3.54197C1.60886 -0.0182365 0.0235926 1.53026 0 3.46339V44.5359C0.0227848 46.47 1.60793 48.02 3.54197 47.9997H44.444C46.3818 48.0237 47.9732 46.4738 48 44.5359V3.46043C47.9724 1.52348 46.3809 -0.0249303 44.444 0.000304102" fill="#0A66C2"/>
<path d="M33.7896 40.9001H40.9017L40.9046 28.3351C40.9046 22.1667 39.5756 17.4252 32.3672 17.4252C29.6115 17.3229 27.0229 18.7446 25.6307 21.125H25.5351V17.9949H18.7075V40.8993H25.8196V29.5686C25.8196 26.5807 26.3863 23.6869 30.0906 23.6869C33.7422 23.6869 33.7896 27.106 33.7896 29.762V40.9001Z" fill="white"/>
<path d="M6.55469 10.7374C6.5551 13.0169 8.40326 14.8644 10.6827 14.864C11.7773 14.8638 12.827 14.4288 13.6009 13.6546C14.3747 12.8805 14.8094 11.8306 14.8092 10.736C14.8088 8.4565 12.9606 6.60897 10.6812 6.60938C8.40177 6.60978 6.55428 8.45798 6.55469 10.7374Z" fill="white"/>
<path d="M7.11921 40.9001H14.2387V17.9949H7.11921V40.9001Z" fill="white"/>
</svg>
