<svg width="48" height="48" viewBox="0 0 48 48" fill="none" xmlns="http://www.w3.org/2000/svg">
<path d="M43.0859 13.989C43.1152 14.423 43.1152 14.857 43.1152 15.2949C43.1152 28.6399 33.209 44.0308 15.0952 44.0308V44.0228C9.7443 44.0308 4.50457 42.4589 0 39.4951C0.778062 39.5911 1.56002 39.6391 2.34394 39.6411C6.77831 39.6451 11.0859 38.1192 14.5745 35.3094C10.3605 35.2274 6.6652 32.4096 5.37428 28.2959C6.85046 28.5879 8.37148 28.5279 9.82035 28.122C5.22608 27.17 1.92078 23.0303 1.92078 18.2227C1.92078 18.1787 1.92078 18.1367 1.92078 18.0947C3.2897 18.8767 4.82243 19.3106 6.39025 19.3586C2.06313 16.3928 0.729311 10.4893 3.34235 5.87364C8.34223 12.1832 15.7192 16.0189 23.6383 16.4248C22.8446 12.9171 23.9288 9.24138 26.4873 6.77557C30.4536 2.95186 36.6918 3.14784 40.4202 7.21354C42.6257 6.76757 44.7396 5.93763 46.674 4.76172C45.9388 7.09954 44.4002 9.08539 42.3449 10.3473C44.2969 10.1113 46.204 9.57536 48 8.75742C46.6779 10.7893 45.0126 12.5591 43.0859 13.989Z" fill="#1D9BF0"/>
</svg>
